<svg width="26" height="24" viewBox="0 0 26 24" fill="none" xmlns="http://www.w3.org/2000/svg">
<path d="M13.0004 0C6.1561 0 0.613281 5.36961 0.613281 12C0.613281 18.6304 6.1561 24 13.0004 24C19.8447 24 25.3875 18.6304 25.3875 12C25.3991 5.36961 19.8447 0 13.0004 0ZM16.4051 7.2045C16.4051 7.2045 16.2541 7.2045 14.9409 7.2045C13.6395 7.2045 13.6976 8.27392 13.6976 8.27392V10.0863H16.3121L15.9751 12.6304H13.7092V19.182H10.9668V12.6304H9.6073V10.0863H10.9668V7.9925C10.9668 7.47467 11.1412 6.95685 11.1412 6.95685C11.4084 6.13508 12.0011 5.31332 13.1514 4.98686C14.3019 4.66041 16.3935 4.94184 16.3935 4.94184V7.2045H16.4051Z" fill="#F2F4F5"/>
</svg>
