<svg width="27" height="24" viewBox="0 0 27 24" fill="none" xmlns="http://www.w3.org/2000/svg">
<path fill-rule="evenodd" clip-rule="evenodd" d="M26.2001 12C26.2001 18.6274 20.4694 24 13.4001 24C6.33086 24 0.600098 18.6274 0.600098 12C0.600098 5.37258 6.33086 0 13.4001 0C20.4694 0 26.2001 5.37258 26.2001 12ZM18.8345 8.49432C18.9753 8.83392 19.0737 9.22592 19.1005 9.796C19.1273 10.3682 19.1296 10.5506 19.1296 12.0074C19.1296 13.4642 19.1229 13.6465 19.0961 14.2188C19.0692 14.7889 18.9708 15.1788 18.83 15.5205C18.5326 16.2415 17.9243 16.8116 17.155 17.0904C16.7927 17.2225 16.3746 17.3146 15.7663 17.3398C15.1558 17.365 14.9613 17.3713 13.4071 17.3713C11.8528 17.3713 11.6583 17.365 11.0478 17.3398C10.4395 17.3146 10.0236 17.2225 9.65908 17.0904C9.27892 16.9563 8.93227 16.7446 8.64601 16.4721C8.3553 16.2038 8.12949 15.881 7.98413 15.5205C7.84324 15.1808 7.74479 14.7889 7.71797 14.2188C7.69115 13.6465 7.68442 13.4642 7.68442 12.0074C7.68442 10.5506 7.69115 10.3682 7.72024 9.79392C7.74706 9.22376 7.84541 8.83392 7.98632 8.49224C8.12949 8.13592 8.3553 7.81104 8.64601 7.54272C8.93227 7.2681 9.27662 7.0585 9.6613 6.92225C10.0236 6.79026 10.4418 6.69798 11.05 6.67285C11.6605 6.64771 11.855 6.64141 13.4092 6.64141C14.9634 6.64141 15.158 6.64771 15.7707 6.67498C16.379 6.70011 16.795 6.79231 17.1595 6.92438C17.5396 7.0585 17.8862 7.27023 18.1724 7.54272C18.4655 7.81104 18.6891 8.13384 18.8345 8.49432ZM17.8728 15.1725C17.9511 14.9838 18.045 14.7009 18.0696 14.1769C18.0965 13.6109 18.1032 13.4432 18.1032 12.0116C18.1032 10.5799 18.0965 10.4102 18.0696 9.84424C18.045 9.32224 17.9511 9.03728 17.8728 8.84864C17.7811 8.61592 17.6358 8.40632 17.4457 8.23232C17.2624 8.05416 17.0364 7.91789 16.7883 7.832C16.587 7.75864 16.2851 7.67062 15.726 7.64753C15.1244 7.62239 14.9433 7.61609 13.4137 7.61609C11.8864 7.61609 11.7052 7.62239 11.1015 7.64753C10.5447 7.67062 10.2405 7.75864 10.0392 7.832C9.79092 7.91789 9.56735 8.05416 9.38183 8.23232C9.18941 8.40424 9.04408 8.61592 8.95237 8.84864C8.8741 9.03728 8.78019 9.32024 8.75565 9.84424C8.72874 10.4081 8.7221 10.5799 8.7221 12.0116C8.7221 13.4432 8.72874 13.613 8.75565 14.179C8.78019 14.7009 8.8741 14.986 8.95237 15.1746C9.04408 15.4072 9.1894 15.6168 9.37953 15.7908C9.56291 15.969 9.78879 16.1053 10.0369 16.1912C10.2382 16.2646 10.5401 16.3526 11.0992 16.3756C11.7008 16.4008 11.8841 16.407 13.4115 16.407C14.9389 16.407 15.12 16.4008 15.7238 16.3756C16.2807 16.3526 16.5847 16.2646 16.786 16.1912C17.2847 16.0109 17.6805 15.6399 17.8728 15.1725ZM13.4091 9.2516C11.7857 9.2516 10.4685 10.4862 10.4685 12.0079C10.4685 13.5297 11.7857 14.7642 13.4091 14.7642C15.0327 14.7642 16.3498 13.5297 16.3498 12.0079C16.3498 10.4862 15.0327 9.2516 13.4091 9.2516ZM13.4091 13.7959C12.356 13.7959 11.5016 12.9952 11.5016 12.0079C11.5016 11.0206 12.356 10.2199 13.4091 10.2199C14.4625 10.2199 15.3167 11.0206 15.3167 12.0079C15.3167 12.9952 14.4625 13.7959 13.4091 13.7959ZM16.4664 9.78576C16.8456 9.78576 17.153 9.49768 17.153 9.14232C17.153 8.78688 16.8456 8.4988 16.4664 8.4988C16.0872 8.4988 15.7799 8.78688 15.7799 9.14232C15.7799 9.49768 16.0872 9.78576 16.4664 9.78576Z" fill="#F2F4F5"/>
</svg>
