<svg width="26" height="24" viewBox="0 0 26 24" fill="none" xmlns="http://www.w3.org/2000/svg">
<path d="M12.9642 0C6.11997 0 0.577148 5.36961 0.577148 12C0.577148 18.6304 6.11997 24 12.9642 24C19.8085 24 25.3513 18.6304 25.3513 12C25.363 5.36961 19.8085 0 12.9642 0ZM10.3497 16.9081C9.73384 16.8968 9.11795 16.8968 8.50207 16.9081C8.31618 16.9081 8.24646 16.863 8.24646 16.6717C8.25804 14.5666 8.25804 12.4615 8.24646 10.3565C8.24646 10.1651 8.31618 10.1088 8.50207 10.1088C9.1296 10.1201 9.74548 10.1201 10.3729 10.1088C10.5821 10.1088 10.6402 10.1876 10.6286 10.379C10.617 11.4259 10.6286 12.4728 10.6286 13.531C10.6286 14.5666 10.6286 15.6022 10.6286 16.6379C10.6402 16.8406 10.5821 16.9194 10.3497 16.9081ZM9.44332 9.26456C8.68804 9.26456 8.11864 8.74672 8.11864 8.07128C8.11864 7.38462 8.69968 6.86679 9.46661 6.87805C10.2335 6.8893 10.7796 7.38462 10.7796 8.08256C10.7796 8.758 10.2102 9.25328 9.44332 9.26456ZM18.693 16.9081C18.0888 16.8968 17.4961 16.9081 16.8918 16.9081C16.5781 16.9081 16.5781 16.9081 16.5781 16.6154C16.5781 15.5122 16.5781 14.3978 16.5781 13.2946C16.5781 13.1032 16.5665 12.9118 16.5316 12.7205C16.4503 12.2814 16.2295 11.9325 15.7531 11.8311C15.2302 11.7186 14.7886 11.8762 14.4632 12.3039C14.2657 12.5629 14.2076 12.8555 14.2076 13.1594C14.2076 14.319 14.2076 15.4784 14.2076 16.6266C14.2076 16.7167 14.2076 16.7955 14.2076 16.8968C14.1379 16.9081 14.0798 16.9194 14.0217 16.9194C13.3709 16.9194 12.7202 16.9194 12.0579 16.9194C11.8836 16.9194 11.8487 16.8518 11.8487 16.7054C11.8487 14.5891 11.8487 12.4615 11.8487 10.3452C11.8487 10.1763 11.9068 10.1201 12.0811 10.1201C12.7086 10.1201 13.3477 10.1314 13.9752 10.1201C14.1612 10.1201 14.2192 10.1876 14.2076 10.3565C14.196 10.5591 14.2076 10.7505 14.2076 10.9531C14.6492 10.4015 15.1953 10.0526 15.9042 9.98496C17.3334 9.84992 18.449 10.469 18.8324 11.9212C18.9254 12.2702 18.9602 12.6304 18.9719 12.9794C18.9835 14.2064 18.9719 15.4222 18.9835 16.6491C18.9719 16.8518 18.9021 16.9081 18.693 16.9081Z" fill="#F2F4F5"/>
</svg>
