<svg width="25" height="24" viewBox="0 0 25 24" fill="none" xmlns="http://www.w3.org/2000/svg">
<path d="M12.3999 0C5.77271 0 0.399902 5.37256 0.399902 12C0.399902 18.6274 5.77271 24 12.3999 24C19.0271 24 24.3999 18.6274 24.3999 12C24.3999 5.37256 19.0271 0 12.3999 0ZM13.7807 15.9858C12.6707 15.9858 11.6267 15.3858 11.2693 14.7045C11.2693 14.7045 10.6721 17.0725 10.5467 17.5295C10.1015 19.145 8.79217 20.761 8.69028 20.8934C8.61932 20.9855 8.46243 20.9567 8.44622 20.8345C8.41848 20.6287 8.08408 18.5906 8.47741 16.9284C8.67407 16.0936 9.79906 11.327 9.79906 11.327C9.79906 11.327 9.47153 10.6707 9.47153 9.70042C9.47153 8.17694 10.3544 7.03967 11.4539 7.03967C12.3886 7.03967 12.8399 7.74163 12.8399 8.58304C12.8399 9.52291 12.2418 10.9283 11.9332 12.2305C11.6751 13.3209 12.4795 14.2105 13.5548 14.2105C15.5026 14.2105 16.8134 11.7091 16.8134 8.74484C16.8134 6.4924 15.2971 4.80565 12.5369 4.80565C9.41948 4.80565 7.47542 7.13101 7.47542 9.7289C7.47542 10.6241 7.7401 11.2563 8.15405 11.7447C8.34384 11.9693 8.37085 12.0597 8.30186 12.3175C8.25201 12.5068 8.13981 12.962 8.09218 13.1419C8.02368 13.4027 7.81302 13.4955 7.57707 13.3995C6.14173 12.8134 5.47243 11.2406 5.47243 9.47257C5.47243 6.55255 7.9348 3.05113 12.819 3.05113C16.7437 3.05113 19.3269 5.89086 19.3269 8.93979C19.3271 12.9733 17.0848 15.9858 13.7807 15.9858Z" fill="#F2F4F5"/>
</svg>
