<svg width="25" height="24" viewBox="0 0 25 24" fill="none" xmlns="http://www.w3.org/2000/svg">
<path d="M12.3999 0C5.77351 0 0.399902 5.37361 0.399902 12C0.399902 18.6264 5.77351 24 12.3999 24C19.0263 24 24.3999 18.6264 24.3999 12C24.3999 5.37361 19.0263 0 12.3999 0ZM18.4201 9.18155V10.8064C17.6539 10.8067 16.9095 10.6565 16.2074 10.3603C15.7559 10.1697 15.3353 9.92414 14.9506 9.62738L14.9621 14.6286C14.9573 15.7548 14.5118 16.8129 13.7054 17.6099C13.0491 18.2587 12.2176 18.6712 11.3162 18.8047C11.1045 18.8361 10.8889 18.8522 10.671 18.8522C9.70614 18.8522 8.79015 18.5396 8.04086 17.963C7.89986 17.8544 7.765 17.7367 7.63661 17.6099C6.76267 16.7461 6.31201 15.5755 6.3879 14.3439C6.44579 13.4065 6.82112 12.5124 7.44681 11.8117C8.27462 10.8844 9.43271 10.3697 10.671 10.3697C10.8889 10.3697 11.1045 10.3861 11.3162 10.4175V11.0182V12.6894C11.1154 12.6232 10.901 12.5867 10.6777 12.5867C9.54639 12.5867 8.63115 13.5097 8.64807 14.6418C8.65881 15.3662 9.05448 15.9994 9.63807 16.3484C9.91234 16.5125 10.2279 16.6141 10.5646 16.6326C10.8284 16.647 11.0817 16.6103 11.3162 16.5329C12.1245 16.2659 12.7076 15.5067 12.7076 14.6113L12.7103 11.2622V5.14781H14.9479C14.95 5.36953 14.9725 5.58586 15.0144 5.79548C15.1832 6.64397 15.6615 7.38009 16.3271 7.88194C16.9075 8.3197 17.6303 8.5792 18.4136 8.5792C18.4141 8.5792 18.4206 8.5792 18.42 8.57869V9.18155H18.4201Z" fill="#F2F4F5"/>
</svg>
