<svg width="26" height="24" viewBox="0 0 26 24" fill="none" xmlns="http://www.w3.org/2000/svg">
<path d="M13.2689 0C6.42465 0 0.881836 5.36961 0.881836 12C0.881836 18.6304 6.42465 24 13.2689 24C20.1132 24 25.656 18.6304 25.656 12C25.6677 5.36961 20.1132 0 13.2689 0ZM19.7878 8.848C19.567 9.18576 19.2766 9.52344 18.9628 9.77112C18.835 9.8724 18.7072 9.96248 18.5794 10.0638C18.591 10.6042 18.5677 11.1219 18.4632 11.5835C17.8589 14.2402 16.2437 16.0413 13.6873 16.8067C12.7692 17.0882 11.2819 17.2007 10.2361 16.9418C9.71317 16.818 9.24832 16.6717 8.80679 16.4915C8.56276 16.3902 8.33036 16.2777 8.12119 16.1426C8.05148 16.0975 7.98176 16.0638 7.91203 16.0187C8.14444 16.03 8.42332 16.0526 8.69059 16.0526C8.93461 16.0526 9.16698 16.03 9.3878 15.9738C9.93391 15.8611 10.4336 15.7036 10.852 15.4672C11.0611 15.3546 11.3632 15.2195 11.5143 15.0506C11.2354 15.0506 10.9914 14.9944 10.7938 14.9268C10.0037 14.6566 9.55048 14.1614 9.24832 13.4184C9.49235 13.4409 10.1779 13.5084 10.3406 13.3734C10.0385 13.3621 9.74802 13.1933 9.53884 13.0582C8.89975 12.6754 8.38846 12.0338 8.38846 11.0319C8.4698 11.0657 8.55114 11.1107 8.6441 11.1445C8.80679 11.212 8.96947 11.2458 9.15542 11.2795C9.23676 11.2908 9.39944 11.3358 9.49235 11.3133H9.48079C9.35295 11.1782 9.15542 11.0882 9.03919 10.9306C8.63248 10.4353 8.15606 9.7148 8.40008 8.82552C8.45818 8.6004 8.65572 8.364 8.76031 8.17264C8.76031 8.17264 8.77193 8.17264 8.77193 8.18384C8.81841 8.2852 8.92299 8.35272 8.99271 8.43152C9.20191 8.6792 9.4575 8.90432 9.71317 9.10696C10.6079 9.7824 11.4097 10.1989 12.6995 10.5028C13.0249 10.5816 13.4084 10.6379 13.7918 10.6379C13.6873 10.3339 13.7221 9.82736 13.8035 9.52344C14.0242 8.7692 14.4891 8.22888 15.1863 7.93621C15.349 7.86866 15.5349 7.81238 15.7324 7.77861C15.837 7.76735 15.9299 7.7561 16.0346 7.74484C16.9757 7.73358 17.4871 8.06 17.9635 8.48784C18.3702 8.454 18.9047 8.22888 19.2184 8.08256C19.323 8.02624 19.4973 7.9925 19.5903 7.94746C19.416 8.40904 19.1023 8.758 18.7304 9.03936C18.6491 9.09568 18.5677 9.18576 18.4632 9.21952C18.4632 9.21952 18.4632 9.21952 18.4632 9.2308C18.9396 9.19696 19.3811 8.97184 19.7878 8.848Z" fill="#F2F4F5"/>
</svg>
